if (_typeface_js && _typeface_js.loadFace) _typeface_js.loadFace({"glyphs":{"0":{"ha":694,"x_min":0,"x_max":608,"o":"m 434 174 l 434 694 l 174 694 l 174 260 l 260 174 l 434 174 m 174 0 l 0 174 l 0 868 l 608 868 l 608 0 l 174 0 z "},"1":{"ha":260,"x_min":0,"x_max":174,"o":"m 0 0 l 0 781 l 174 955 l 174 0 l 0 0 z "},"2":{"ha":694,"x_min":-87,"x_max":608,"o":"m 0 0 l 0 260 l 434 694 l 87 694 l -87 868 l 608 868 l 608 608 l 174 174 l 608 174 l 608 0 l 0 0 z "},"3":{"ha":694,"x_min":-87,"x_max":608,"o":"m -87 0 l 87 174 l 434 174 l 434 260 l 260 434 l 434 608 l 434 694 l 0 694 l 0 868 l 608 868 l 608 521 l 521 434 l 608 347 l 608 0 l -87 0 z "},"4":{"ha":694,"x_min":0,"x_max":608,"o":"m 434 0 l 434 347 l 0 347 l 0 868 l 174 868 l 174 521 l 434 521 l 434 868 l 608 868 l 608 0 l 434 0 z "},"5":{"ha":694,"x_min":-87,"x_max":608,"o":"m -87 0 l 87 174 l 434 174 l 0 608 l 0 868 l 608 868 l 608 694 l 174 694 l 608 260 l 608 0 l -87 0 z "},"6":{"ha":694,"x_min":0,"x_max":694,"o":"m 174 0 l 0 174 l 0 868 l 694 868 l 521 694 l 174 694 l 174 260 l 260 174 l 434 174 l 434 434 l 347 434 l 174 608 l 608 608 l 608 0 l 174 0 z "},"7":{"ha":694,"x_min":-260,"x_max":868,"o":"m -260 -260 l -260 0 l 434 694 l 0 694 l 0 868 l 868 868 l -260 -260 l -260 -260 z "},"8":{"ha":694,"x_min":0,"x_max":608,"o":"m 434 174 l 434 260 l 347 347 l 347 347 l 304 391 l 174 260 l 174 174 l 434 174 m 304 477 l 434 608 l 434 694 l 174 694 l 174 608 l 260 521 l 260 519 l 304 477 l 304 477 m 0 0 l 0 347 l 87 434 l 0 521 l 0 868 l 608 868 l 608 521 l 521 434 l 608 347 l 608 0 l 0 0 z "},"9":{"ha":694,"x_min":-87,"x_max":608,"o":"m -87 0 l 87 174 l 434 174 l 434 608 l 347 694 l 174 694 l 174 434 l 260 434 l 434 260 l 0 260 l 0 868 l 434 868 l 608 694 l 608 0 l -87 0 z "}," ":{"ha":260,"x_min":0,"x_max":0,"o":""},"!":{"ha":260,"x_min":0,"x_max":174,"o":"m 0 0 l 0 174 l 174 174 l 174 0 l 0 0 m 0 347 l 0 868 l 174 868 l 174 347 l 0 347 z "},"\"":{"ha":434,"x_min":0,"x_max":347,"o":"m 87 608 l 0 694 l 0 868 l 347 868 l 347 694 l 260 608 l 174 694 l 87 608 l 87 608 z "},"#":{"ha":955,"x_min":0,"x_max":868,"o":"m 521 347 l 521 521 l 347 521 l 347 347 l 521 347 m 174 0 l 174 174 l 0 174 l 0 347 l 174 347 l 174 521 l 0 521 l 0 694 l 174 694 l 174 868 l 347 868 l 347 694 l 521 694 l 521 868 l 694 868 l 694 694 l 868 694 l 868 521 l 694 521 l 694 347 l 868 347 l 868 174 l 694 174 l 694 0 l 521 0 l 521 174 l 347 174 l 347 0 l 174 0 z "},"$":{"ha":868,"x_min":-260,"x_max":1042,"o":"m 608 87 l 521 174 l 521 87 l 608 87 m 434 87 l 434 260 l 347 347 l 347 87 l 434 87 m 260 694 l 260 781 l 174 781 l 260 694 l 260 694 m 434 521 l 434 781 l 347 781 l 347 608 l 434 521 l 434 521 m 347 -260 l 260 -174 l 260 -87 l 0 -87 l 0 87 l 260 87 l 260 434 l -260 955 l 260 955 l 260 1128 l 347 1042 l 347 955 l 434 955 l 434 1128 l 521 1042 l 521 955 l 781 955 l 781 781 l 521 781 l 521 434 l 1042 -87 l 521 -87 l 521 -260 l 434 -174 l 434 -87 l 347 -87 l 347 -260 l 347 -260 z "},"%":{"ha":694,"x_min":0,"x_max":608,"o":"m 434 0 l 434 174 l 608 174 l 608 0 l 434 0 m 0 694 l 0 868 l 174 868 l 174 694 l 0 694 m 0 0 l 0 260 l 608 868 l 608 608 l 0 0 l 0 0 z "},"&":{"ha":781,"x_min":0,"x_max":781,"o":"m 0 0 l 0 347 l 87 434 l 0 521 l 0 868 l 694 868 l 521 694 l 174 694 l 174 608 l 347 434 l 174 260 l 174 174 l 347 174 l 347 521 l 521 694 l 521 521 l 781 521 l 608 347 l 521 347 l 521 174 l 694 174 l 694 0 l 0 0 z "},"'":{"ha":260,"x_min":0,"x_max":174,"o":"m 87 608 l 0 694 l 0 868 l 174 868 l 174 694 l 87 608 l 87 608 z "},"(":{"ha":521,"x_min":0,"x_max":434,"o":"m 0 -87 l 0 781 l 174 955 l 434 955 l 434 781 l 260 781 l 174 694 l 174 87 l 434 87 l 434 -87 l 0 -87 z "},")":{"ha":521,"x_min":0,"x_max":434,"o":"m 0 -87 l 0 87 l 174 87 l 260 174 l 260 781 l 0 781 l 0 955 l 434 955 l 434 87 l 260 -87 l 0 -87 z "},"*":{"ha":260,"x_min":0,"x_max":174,"o":"m 0 694 l 0 868 l 174 868 l 174 694 l 0 694 z "},"+":{"ha":608,"x_min":0,"x_max":521,"o":"m 174 174 l 174 347 l 0 347 l 0 521 l 174 521 l 174 694 l 347 694 l 347 521 l 521 521 l 521 347 l 347 347 l 347 174 l 174 174 z "},",":{"ha":260,"x_min":0,"x_max":174,"o":"m 0 -87 l 0 174 l 174 174 l 174 87 l 0 -87 l 0 -87 z "},"-":{"ha":521,"x_min":0,"x_max":434,"o":"m 0 347 l 0 521 l 434 521 l 434 347 l 0 347 z "},".":{"ha":260,"x_min":0,"x_max":174,"o":"m 0 0 l 0 174 l 174 174 l 174 0 l 0 0 z "},"/":{"ha":694,"x_min":0,"x_max":608,"o":"m 0 0 l 0 260 l 608 868 l 608 608 l 0 0 l 0 0 z "},":":{"ha":260,"x_min":0,"x_max":174,"o":"m 0 174 l 0 347 l 174 347 l 174 174 l 0 174 m 0 521 l 0 694 l 174 694 l 174 521 l 0 521 z "},";":{"ha":260,"x_min":0,"x_max":174,"o":"m 0 87 l 0 347 l 174 347 l 174 260 l 0 87 l 0 87 m 0 521 l 0 694 l 174 694 l 174 521 l 0 521 z "},"<":{"ha":521,"x_min":0,"x_max":434,"o":"m 434 0 l 0 434 l 434 868 l 434 608 l 260 434 l 434 260 l 434 0 l 434 0 z "},"=":{"ha":521,"x_min":0,"x_max":434,"o":"m 0 217 l 0 391 l 434 391 l 434 217 l 0 217 m 0 477 l 0 651 l 434 651 l 434 477 l 0 477 z "},">":{"ha":521,"x_min":0,"x_max":434,"o":"m 0 0 l 0 260 l 174 434 l 0 608 l 0 868 l 434 434 l 0 0 l 0 0 z "},"?":{"ha":694,"x_min":-87,"x_max":608,"o":"m 174 0 l 174 174 l 347 174 l 347 0 l 174 0 m 174 347 l 174 434 l 434 694 l 87 694 l -87 868 l 608 868 l 608 608 l 347 347 l 174 347 z "},"@":{"ha":1128,"x_min":0,"x_max":1042,"o":"m 608 347 l 608 521 l 434 521 l 434 347 l 608 347 m 174 -87 l 0 87 l 0 955 l 1042 955 l 1042 174 l 260 174 l 260 694 l 781 694 l 781 347 l 868 347 l 868 781 l 174 781 l 174 174 l 260 87 l 1042 87 l 1042 -87 l 174 -87 z "},"A":{"ha":868,"x_min":-347,"x_max":781,"o":"m -347 -87 l 781 1042 l 781 -87 l 608 -87 l 608 608 l 87 87 l 434 87 l 608 -87 l -347 -87 z "},"B":{"ha":868,"x_min":0,"x_max":1128,"o":"m 0 -174 l 0 955 l 955 955 l 521 521 l 1128 -87 l 174 -87 l 347 87 l 694 87 l 260 521 l 521 781 l 174 781 l 174 0 l 0 -174 l 0 -174 z "},"C":{"ha":868,"x_min":0,"x_max":868,"o":"m 174 -87 l 0 87 l 0 955 l 868 955 l 694 781 l 174 781 l 174 174 l 260 87 l 781 87 l 781 -87 l 174 -87 z "},"D":{"ha":868,"x_min":0,"x_max":781,"o":"m 0 -174 l 0 955 l 608 955 l 781 781 l 781 -87 l 174 -87 l 347 87 l 608 87 l 608 694 l 521 781 l 174 781 l 174 0 l 0 -174 l 0 -174 z "},"E":{"ha":868,"x_min":0,"x_max":955,"o":"m 0 -87 l 0 955 l 781 955 l 781 781 l 174 781 l 174 521 l 781 521 l 608 347 l 174 347 l 174 87 l 781 87 l 955 -87 l 0 -87 z "},"F":{"ha":868,"x_min":0,"x_max":955,"o":"m 0 -87 l 0 955 l 955 955 l 781 781 l 174 781 l 174 608 l 781 608 l 781 434 l 174 434 l 174 -87 l 0 -87 z "},"G":{"ha":868,"x_min":0,"x_max":955,"o":"m 174 -87 l 0 87 l 0 955 l 955 955 l 781 781 l 174 781 l 174 174 l 260 87 l 608 87 l 608 521 l 260 521 l 434 694 l 781 694 l 781 -87 l 174 -87 z "},"H":{"ha":868,"x_min":-174,"x_max":781,"o":"m 781 -174 l 608 0 l 608 347 l 174 347 l 174 -87 l 0 -87 l 0 347 l -174 521 l 0 521 l 0 955 l 174 955 l 174 521 l 608 521 l 608 955 l 781 955 l 781 -174 l 781 -174 z "},"I":{"ha":260,"x_min":0,"x_max":174,"o":"m 0 -87 l 0 955 l 174 955 l 174 -87 l 0 -87 z "},"J":{"ha":781,"x_min":-87,"x_max":694,"o":"m -87 -87 l 87 87 l 434 87 l 521 174 l 521 781 l 434 781 l 260 955 l 694 955 l 694 87 l 521 -87 l -87 -87 z "},"K":{"ha":868,"x_min":0,"x_max":1128,"o":"m 0 -174 l 0 955 l 174 955 l 174 608 l 347 608 l 694 955 l 955 955 l 521 521 l 1128 -87 l 868 -87 l 347 434 l 174 434 l 174 0 l 0 -174 l 0 -174 z "},"L":{"ha":608,"x_min":0,"x_max":694,"o":"m 0 -87 l 0 868 l 174 1042 l 174 87 l 521 87 l 694 -87 l 0 -87 z "},"M":{"ha":955,"x_min":0,"x_max":868,"o":"m 0 -87 l 0 955 l 434 521 l 868 955 l 868 -87 l 694 -87 l 694 521 l 434 260 l 174 521 l 174 -87 l 0 -87 z "},"N":{"ha":868,"x_min":0,"x_max":781,"o":"m 0 -87 l 0 955 l 608 347 l 608 955 l 781 955 l 781 -87 l 174 521 l 174 -87 l 0 -87 z "},"O":{"ha":868,"x_min":0,"x_max":781,"o":"m 608 87 l 608 781 l 174 781 l 174 174 l 260 87 l 608 87 m 174 -87 l 0 87 l 0 955 l 781 955 l 781 -87 l 174 -87 z "},"P":{"ha":868,"x_min":0,"x_max":955,"o":"m 174 434 l 521 781 l 174 781 l 174 434 l 174 434 m 0 -174 l 0 955 l 955 955 l 174 174 l 174 0 l 0 -174 l 0 -174 z "},"Q":{"ha":868,"x_min":0,"x_max":998,"o":"m 0 -87 l 0 781 l 174 955 l 781 955 l 781 174 l 434 174 l 260 347 l 608 347 l 608 781 l 260 781 l 174 694 l 174 87 l 825 87 l 998 -87 l 0 -87 z "},"R":{"ha":868,"x_min":0,"x_max":1128,"o":"m 0 -174 l 0 955 l 955 955 l 521 521 l 1128 -87 l 868 -87 l 260 521 l 521 781 l 174 781 l 174 0 l 0 -174 l 0 -174 z "},"S":{"ha":868,"x_min":-260,"x_max":1042,"o":"m 0 -87 l 0 87 l 608 87 l -260 955 l 781 955 l 781 781 l 174 781 l 1042 -87 l 0 -87 z "},"T":{"ha":868,"x_min":0,"x_max":781,"o":"m 477 -174 l 304 0 l 304 347 l 87 347 l 260 521 l 304 521 l 304 781 l 0 781 l 0 955 l 781 955 l 781 781 l 477 781 l 477 521 l 694 521 l 521 347 l 477 347 l 477 -174 l 477 -174 z "},"U":{"ha":868,"x_min":0,"x_max":781,"o":"m 174 -87 l 0 87 l 0 955 l 174 955 l 174 174 l 260 87 l 608 87 l 608 955 l 781 955 l 781 -87 l 174 -87 z "},"V":{"ha":868,"x_min":-347,"x_max":781,"o":"m 781 -174 l -347 955 l -87 955 l 608 260 l 608 955 l 781 955 l 781 -174 l 781 -174 z "},"W":{"ha":1563,"x_min":-347,"x_max":1476,"o":"m 781 -174 l -347 955 l -87 955 l 608 260 l 608 955 l 1302 260 l 1302 955 l 1476 955 l 1476 -174 l 781 521 l 781 -174 l 781 -174 z "},"X":{"ha":868,"x_min":-347,"x_max":1128,"o":"m -347 -347 l -347 -87 l 260 521 l -174 955 l 87 955 l 347 694 l 347 693 l 391 651 l 955 1215 l 955 955 l 521 521 l 1128 -87 l 868 -87 l 434 347 l 434 347 l 391 391 l -347 -347 l -347 -347 z "},"Y":{"ha":868,"x_min":-174,"x_max":955,"o":"m 477 -174 l 304 0 l 304 477 l -174 955 l 87 955 l 347 694 l 347 693 l 391 651 l 955 1215 l 955 955 l 477 477 l 477 -174 l 477 -174 z "},"Z":{"ha":868,"x_min":-260,"x_max":1042,"o":"m -260 -87 l 608 781 l 0 781 l 0 955 l 1042 955 l 174 87 l 781 87 l 781 -87 l -260 -87 z "},"[":{"ha":521,"x_min":0,"x_max":434,"o":"m 0 -87 l 0 955 l 434 955 l 434 781 l 174 781 l 174 87 l 434 87 l 434 -87 l 0 -87 z "},"\\":{"ha":694,"x_min":0,"x_max":608,"o":"m 608 0 l 0 608 l 0 868 l 608 260 l 608 0 l 608 0 z "},"]":{"ha":521,"x_min":0,"x_max":434,"o":"m 0 -87 l 0 87 l 260 87 l 260 781 l 0 781 l 0 955 l 434 955 l 434 -87 l 0 -87 z "},"_":{"ha":694,"x_min":0,"x_max":608,"o":"m 0 0 l 0 174 l 608 174 l 608 0 l 0 0 z "},"`":{"ha":260,"x_min":0,"x_max":174,"o":"m 87 608 l 0 694 l 0 868 l 174 868 l 174 694 l 87 608 l 87 608 z "},"a":{"ha":694,"x_min":-347,"x_max":608,"o":"m -347 0 l 608 955 l 608 0 l 434 0 l 434 521 l 87 174 l 347 174 l 347 0 l -347 0 z "},"b":{"ha":694,"x_min":0,"x_max":608,"o":"m 0 -87 l 0 868 l 608 868 l 608 521 l 521 434 l 608 347 l 608 0 l 260 0 l 260 174 l 434 174 l 434 260 l 260 434 l 434 608 l 434 694 l 174 694 l 174 87 l 0 -87 l 0 -87 z "},"c":{"ha":694,"x_min":0,"x_max":608,"o":"m 174 0 l 0 174 l 0 868 l 608 868 l 608 694 l 174 694 l 174 260 l 260 174 l 608 174 l 608 0 l 174 0 z "},"d":{"ha":694,"x_min":0,"x_max":608,"o":"m 0 -87 l 0 868 l 434 868 l 608 694 l 608 0 l 260 0 l 260 174 l 434 174 l 434 608 l 347 694 l 174 694 l 174 87 l 0 -87 l 0 -87 z "},"e":{"ha":694,"x_min":0,"x_max":694,"o":"m 0 0 l 0 868 l 608 868 l 608 694 l 174 694 l 174 521 l 608 521 l 434 347 l 174 347 l 174 174 l 521 174 l 694 0 l 0 0 z "},"f":{"ha":694,"x_min":0,"x_max":608,"o":"m 0 0 l 0 868 l 608 868 l 608 694 l 174 694 l 174 521 l 608 521 l 434 347 l 174 347 l 174 0 l 0 0 z "},"g":{"ha":694,"x_min":0,"x_max":694,"o":"m 174 0 l 0 174 l 0 868 l 694 868 l 521 694 l 174 694 l 174 260 l 260 174 l 434 174 l 434 608 l 608 434 l 608 0 l 174 0 z "},"h":{"ha":694,"x_min":0,"x_max":608,"o":"m 0 0 l 0 868 l 174 868 l 174 0 l 0 0 m 434 0 l 434 347 l 347 347 l 174 521 l 434 521 l 434 868 l 608 868 l 608 0 l 434 0 z "},"i":{"ha":260,"x_min":0,"x_max":174,"o":"m 0 0 l 0 868 l 174 868 l 174 0 l 0 0 z "},"j":{"ha":694,"x_min":-87,"x_max":608,"o":"m -87 0 l 87 174 l 347 174 l 434 260 l 434 868 l 608 868 l 608 174 l 434 0 l -87 0 z "},"k":{"ha":694,"x_min":0,"x_max":608,"o":"m 0 0 l 0 868 l 174 868 l 174 0 l 0 0 m 608 -87 l 434 87 l 434 260 l 260 434 l 434 608 l 434 868 l 608 868 l 608 521 l 521 434 l 608 347 l 608 -87 l 608 -87 z "},"l":{"ha":521,"x_min":0,"x_max":434,"o":"m 0 0 l 0 781 l 174 955 l 174 174 l 434 174 l 434 0 l 0 0 z "},"m":{"ha":781,"x_min":0,"x_max":694,"o":"m 0 0 l 0 868 l 347 521 l 694 868 l 694 0 l 521 0 l 521 434 l 347 260 l 174 434 l 174 0 l 0 0 z "},"n":{"ha":694,"x_min":0,"x_max":608,"o":"m 0 0 l 0 868 l 434 434 l 434 868 l 608 868 l 608 0 l 174 434 l 174 0 l 0 0 z "},"o":{"ha":694,"x_min":0,"x_max":608,"o":"m 434 174 l 434 694 l 174 694 l 174 260 l 260 174 l 434 174 m 174 0 l 0 174 l 0 868 l 608 868 l 608 0 l 174 0 z "},"p":{"ha":694,"x_min":0,"x_max":608,"o":"m 0 0 l 0 868 l 608 868 l 608 521 l 260 174 l 260 434 l 434 608 l 434 694 l 174 694 l 174 0 l 0 0 z "},"q":{"ha":694,"x_min":0,"x_max":694,"o":"m 0 0 l 0 694 l 174 868 l 608 868 l 608 260 l 434 260 l 434 694 l 260 694 l 174 608 l 174 174 l 521 174 l 694 0 l 0 0 z "},"r":{"ha":694,"x_min":0,"x_max":608,"o":"m 608 -87 l 434 87 l 434 260 l 260 434 l 434 608 l 434 694 l 174 694 l 174 0 l 0 0 l 0 868 l 608 868 l 608 521 l 521 434 l 608 347 l 608 -87 l 608 -87 z "},"s":{"ha":694,"x_min":-87,"x_max":608,"o":"m -87 0 l 87 174 l 434 174 l 0 608 l 0 868 l 608 868 l 608 694 l 174 694 l 608 260 l 608 0 l -87 0 z "},"t":{"ha":694,"x_min":0,"x_max":608,"o":"m 391 -87 l 217 87 l 217 694 l 0 694 l 0 868 l 608 868 l 608 694 l 391 694 l 391 -87 l 391 -87 z "},"u":{"ha":694,"x_min":0,"x_max":608,"o":"m 174 0 l 0 174 l 0 868 l 174 868 l 174 260 l 260 174 l 434 174 l 434 868 l 608 868 l 608 0 l 174 0 z "},"v":{"ha":694,"x_min":0,"x_max":608,"o":"m 608 -87 l 0 521 l 0 868 l 174 868 l 174 608 l 434 347 l 434 868 l 608 868 l 608 -87 l 608 -87 z "},"w":{"ha":1128,"x_min":0,"x_max":1042,"o":"m 608 -87 l 0 521 l 0 868 l 174 868 l 174 608 l 434 347 l 434 868 l 608 868 l 608 608 l 868 347 l 868 868 l 1042 868 l 1042 -87 l 608 347 l 608 -87 l 608 -87 z "},"x":{"ha":694,"x_min":0,"x_max":608,"o":"m 0 -87 l 0 347 l 87 434 l 0 521 l 0 868 l 174 868 l 174 608 l 260 521 l 260 519 l 304 477 l 434 608 l 434 868 l 608 868 l 608 521 l 521 434 l 608 347 l 608 -87 l 434 87 l 434 260 l 347 347 l 347 347 l 304 391 l 174 260 l 174 87 l 0 -87 l 0 -87 z "},"y":{"ha":694,"x_min":0,"x_max":608,"o":"m 391 -87 l 217 87 l 217 304 l 0 521 l 0 868 l 174 868 l 174 608 l 260 521 l 260 519 l 304 477 l 434 608 l 434 868 l 608 868 l 608 521 l 391 304 l 391 -87 l 391 -87 z "},"z":{"ha":694,"x_min":-87,"x_max":608,"o":"m 0 0 l 0 260 l 434 694 l 87 694 l -87 868 l 608 868 l 608 608 l 174 174 l 608 174 l 608 0 l 0 0 z "},"{":{"ha":521,"x_min":0,"x_max":434,"o":"m 0 -87 l 0 781 l 174 955 l 434 955 l 434 781 l 260 781 l 174 694 l 174 87 l 434 87 l 434 -87 l 0 -87 z "},"|":{"ha":260,"x_min":0,"x_max":174,"o":"m 0 -87 l 0 955 l 174 955 l 174 -87 l 0 -87 z "},"}":{"ha":521,"x_min":0,"x_max":434,"o":"m 0 -87 l 0 87 l 174 87 l 260 174 l 260 781 l 0 781 l 0 955 l 434 955 l 434 87 l 260 -87 l 0 -87 z "},"‘":{"ha":260,"x_min":0,"x_max":174,"o":"m 0 608 l 0 694 l 174 868 l 174 608 l 0 608 z "},"’":{"ha":260,"x_min":0,"x_max":174,"o":"m 0 608 l 0 868 l 174 868 l 174 781 l 0 608 l 0 608 z "},"“":{"ha":434,"x_min":0,"x_max":347,"o":"m 0 608 l 0 694 l 174 868 l 174 694 l 347 868 l 347 608 l 0 608 z "},"”":{"ha":434,"x_min":0,"x_max":347,"o":"m 0 608 l 0 868 l 347 868 l 347 781 l 174 608 l 174 781 l 0 608 l 0 608 z "}}}
